<?xml version="1.0" standalone="no"?>
<!DOCTYPE svg PUBLIC "-//W3C//DTD SVG 20010904//EN"
 "http://www.w3.org/TR/2001/REC-SVG-20010904/DTD/svg10.dtd">
<svg version="1.0" xmlns="http://www.w3.org/2000/svg"
 width="1245.000000pt" height="1245.000000pt" viewBox="0 0 1245.000000 1245.000000"
 preserveAspectRatio="xMidYMid meet">
<metadata>
Created by potrace 1.14, written by Peter Selinger 2001-2017
</metadata>
<g transform="translate(0.000000,1245.000000) scale(0.100000,-0.100000)"
fill="#000000" stroke="none">
<path d="M4840 12435 c-353 -49 -657 -201 -911 -454 -226 -227 -351 -450 -431
-776 l-22 -90 -3 -2677 -3 -2678 2287 -2 2288 -3 0 -2140 0 -2140 -24 -75
c-29 -94 -47 -130 -106 -207 -55 -73 -143 -143 -240 -190 -139 -66 -81 -64
-1483 -61 l-1267 3 -85 30 c-166 57 -297 171 -371 320 -72 147 -69 57 -69
1662 l0 1442 -1467 4 c-1636 3 -1498 -3 -1653 73 -133 66 -259 216 -313 374
l-22 65 -3 1289 c-3 1440 -7 1338 69 1496 56 114 169 228 279 282 133 65 167
68 735 68 l505 0 0 465 0 465 -554 0 c-509 0 -564 -2 -671 -20 -396 -68 -744
-285 -994 -619 -126 -169 -234 -410 -275 -613 -35 -171 -37 -259 -34 -1568 l3
-1295 23 -109 c122 -578 513 -1027 1049 -1206 231 -77 164 -73 1341 -77 l1052
-4 0 -1023 c0 -980 1 -1029 20 -1141 106 -622 597 -1128 1224 -1264 182 -40
296 -42 1601 -38 1224 3 1252 4 1360 25 357 69 687 255 917 518 179 204 295
437 360 719 l22 100 3 2662 3 2663 -2287 2 -2288 3 -3 2115 c-3 2356 -7 2201
66 2350 27 56 57 95 117 155 91 91 177 142 296 175 75 20 88 20 1365 18 l1289
-3 73 -27 c107 -39 177 -84 257 -164 76 -76 131 -167 161 -269 17 -56 18 -148
21 -1527 l4 -1468 1442 0 c1605 0 1515 3 1662 -69 149 -74 267 -211 322 -374
l28 -82 3 -1267 c3 -1405 5 -1343 -63 -1485 -46 -98 -111 -181 -187 -238 -76
-57 -112 -76 -203 -106 -69 -23 -77 -23 -602 -27 l-533 -3 0 -465 0 -465 583
4 c645 4 653 5 868 77 539 179 947 658 1052 1234 22 121 22 124 22 1441 0
1238 -1 1327 -18 1424 -46 260 -146 496 -299 703 -79 109 -241 267 -353 347
-116 81 -322 182 -452 220 -208 61 -211 61 -1326 61 l-1016 0 -4 1053 c-4
1159 -1 1104 -68 1314 -177 553 -626 950 -1216 1075 l-108 23 -1325 2 c-1051
1 -1345 -1 -1420 -12z"/>
</g>
</svg>
